<?xml version="1.0" encoding="UTF-8"?>
<svg id="Ebene_1" data-name="Ebene 1" xmlns="http://www.w3.org/2000/svg" viewBox="0 0 307.29 266.97">
  <g>
    <path d="M153.94,0C97.27,0,51.34,45.93,51.34,102.6s45.93,102.6,102.6,102.6,102.6-45.93,102.6-102.6S210.6,0,153.94,0ZM149.51,202.94c-52.98,0-95.92-42.95-95.92-95.92S96.54,11.1,149.51,11.1s95.92,42.95,95.92,95.92-42.95,95.92-95.92,95.92Z"/>
    <g>
      <path d="M168.85,197.46c-1.09.11-2.18.16-3.27.16h-37.41c-3.35,0-6.42-2.06-9.7-1.89-3.78.19-7.49-2.45-9.64-5.26-1.8-2.36-1.19-5.73,1.19-7.5,14.29-10.64,13.2-21,27.59-27.52,7.56-2.34,14.36-3.43,20.34-3.74-8.76-.43-19.56.54-32.11,4.43-16.96,7.68-15.68,19.91-32.54,32.46-2.8,2.09-3.52,6.07-1.4,8.85,2.53,3.32,6.9,6.43,11.37,6.21,3.87-.2,7.49,2.23,11.44,2.23h44.12c1.29,0,2.58-.06,3.86-.19,9-.9,39.27-5.2,40.53-18.47-.14-1.14-.31-2.24-.51-3.33-3.81,9.62-26.72,12.86-33.85,13.57Z"/>
      <g>
        <path d="M192.33,134.17c.42.11.84.25,1.24.41-.85-.46-1.77-.82-2.72-1.06-1.34-.34-2.57-.74-3.73-1.16,1.51.67,3.24,1.31,5.21,1.81Z"/>
        <path d="M192,148.89s-11.69-.8-22.5.01c0,0-13.26-.18-24.24,1.61-4.82.78-9.78.4-14.31-1.44-5.04-2.04-10.28-5.43-9.74-10.56.21-2,1.42-3.76,3.07-4.9,3.21-2.22,10.4-6.52,21.26-9.29,0,0,16.88-3.38,29.51,1.25-.53-.34-1.05-.67-1.61-.96-15.66-8.09-40.05-3.19-40.05-3.19-13.34,3.4-22.17,8.68-26.11,11.41-2.03,1.4-3.52,3.56-3.77,6.02-.66,6.31,5.77,10.47,11.96,12.98,5.56,2.25,11.65,2.73,17.57,1.76,13.48-2.19,29.77-1.97,29.77-1.97,13.27-.99,27.63-.01,27.63-.01,6.79-2.92,8.55-6.46,8.32-9.58-.21,2.3-1.91,4.78-6.77,6.87Z"/>
      </g>
      <path d="M189.84,114.73c-3.24,3.07-7.62,4.63-12.09,4.67-4.37.04-10.83-.14-16.62-1.24-9.87-1.88-26.89,1.52-26.89,1.52,0,0-14.2,1.72-18.64-5.49-.7-1.14-.85-2.53-.56-3.83.81-3.52,4.23-10.54,18.48-14.77,5.93-1.76,11.99-2.45,17.57-2.56-7.14-.16-15.29.46-23.22,2.81-15.62,4.64-19.37,12.33-20.25,16.19-.33,1.43-.16,2.95.61,4.2,4.86,7.89,20.43,6.01,20.43,6.01,0,0,18.65-3.73,29.46-1.67,6.33,1.21,13.42,1.4,18.21,1.36,4.89-.05,9.69-1.75,13.24-5.12,1.98-1.88,3.39-4.01,2.88-5.88-.33,1.27-1.35,2.6-2.62,3.8Z"/>
      <path d="M168.5,74.12c-1.15,3.39-3.76,6.09-6.99,7.65-1.41.68-3.15,1.57-4.52,2.39-1.02.62-2.18.96-3.37,1.02-1.77.1-4.33.08-6.43-.57,0,0-17.98-8.88.3-30.27,1.7-1.98,4.03-3.35,6.55-3.74-.12-.02-.24-.04-.36-.05-4.25-.47-8.41,1.43-11.19,4.68-22.45,26.27-.36,37.18-.36,37.18,2.58.79,5.73.81,7.9.7,1.46-.08,2.89-.5,4.14-1.25,1.68-1.01,3.81-2.1,5.55-2.94,3.96-1.92,7.17-5.23,8.58-9.4.82-2.43,1.31-5.46.98-9.12-.14,1.39-.41,2.63-.78,3.72Z"/>
    </g>
  </g>
  <g>
    <path d="M22.46,262.13c0,4.84-6.39,4.84-11.62,4.84-5.81,0-8.71-1.55-10.84-3.72l.97-5.19c1.16,5.04,4.26,8.52,9.88,8.52,3.1,0,9.49-.39,9.49-3.1,0-1.36-.77-2.71-5.81-2.71-4.45,0-5.23-2.32-5.23-3.68s.83-2.07,1.69-2.52c-5.66-.13-10.21-4.76-10.21-10.45s4.68-10.46,10.46-10.46c2,0,3.87.56,5.46,1.54.11-.91.47-1.68,1.07-2.26.69-.67,1.65-1.02,2.77-1.02s1.94.87,1.94,1.94-.87,1.94-1.94,1.94-1.94-.87-1.94-1.94c0-.5.19-.96.51-1.3-1.18.45-1.93,1.47-2.04,2.88,2.79,1.88,4.63,5.07,4.63,8.69,0,5.19-3.79,9.5-8.75,10.32h0s0,0,0,0c-.08.01-.17.03-.25.04-.59.11-2.04.47-2.04,1.46,0,.92.77,1.35,4.26,1.35,5.42,0,7.55,1.94,7.55,4.84ZM12.11,254.15c3.62-.32,6.17-5.06,5.68-10.61-.48-5.54-3.81-9.78-7.44-9.46-3.62.32-6.17,5.07-5.68,10.61.48,5.54,3.81,9.78,7.44,9.46Z"/>
    <path d="M35.41,254.19v-26.73c0-2.32-2.32-2.32-2.32-2.32,5.81,0,5.81-1.16,5.81-1.16v30.21c0,2.32,2.32,2.32,2.32,2.32h-8.13s2.32,0,2.32-2.32Z"/>
    <path d="M72.26,253.03h.39c-2.13,2.32-5.15,3.87-8.52,3.87-6.42,0-11.62-5.2-11.62-11.62s4.65-11.62,10.84-11.62c5.81,0,10.07,4.65,10.07,11.62h-17.06c.01.22.03.45.04.68.54,6.18,3.84,9.98,8.69,9.98,2.91,0,5.04-.97,7.17-2.9ZM56.36,244.89h13.17c0-.1-.01-.19-.01-.29,0-6.1-2.67-10.56-6.54-10.56s-6.71,5.11-6.61,10.84Z"/>
    <path d="M86.58,254.19v-16.66c0-2.32-2.32-2.32-2.32-2.32,5.81,0,5.81-1.16,5.81-1.16v20.14c0,2.32,2.32,2.32,2.32,2.32h-8.13s2.32,0,2.32-2.32ZM85.97,231.96c-.45-1.09.07-2.33,1.15-2.78,1.09-.45,2.33.07,2.78,1.15s-.07,2.33-1.15,2.78-2.33-.07-2.78-1.15Z"/>
    <path d="M123.06,253.03h.39c-2.13,2.32-5.15,3.87-8.52,3.87-6.42,0-11.62-5.2-11.62-11.62s5.2-11.62,11.62-11.62c3.37,0,6.4,1.43,8.52,3.72l-.97,5.19c-1.16-5.04-4.75-8.81-8.53-8.48-4.26.37-7.28,5.69-6.74,11.87.54,6.18,3.84,9.98,8.68,9.98,2.91,0,5.04-.97,7.17-2.9Z"/>
    <path d="M150.86,254.19v-13.17c0-5.04-2.13-6.97-5.42-6.97s-5.42,2.9-5.42,6.97v13.17c0,2.32,2.32,2.32,2.32,2.32h-8.13s2.32,0,2.32-2.32v-26.73c0-2.32-2.32-2.32-2.32-2.32,5.81,0,5.81-1.16,5.81-1.16v14.15c.71-2.44,2.45-4.47,5.81-4.47,6.97,0,8.52,4.26,8.52,7.36v13.17c0,2.32,2.32,2.32,2.32,2.32h-8.13s2.32,0,2.32-2.32Z"/>
    <path d="M182.93,254.19l-7.4-9.12-2.33,2.15v6.97c0,2.32,2.32,2.32,2.32,2.32h-8.13s2.32,0,2.32-2.32v-26.73c0-2.32-2.32-2.32-2.32-2.32,5.81,0,5.81-1.16,5.81-1.16v22.88l11.41-10.49c2.53-2.32.21-2.32.21-2.32h5.04s-2.32,0-4.85,2.32l-7.47,6.87,8.89,10.95c1.89,2.32,4.21,2.32,4.21,2.32h-8.13s2.32,0,.44-2.32Z"/>
    <path d="M203.13,254.19v-26.73c0-2.32-2.32-2.32-2.32-2.32,5.81,0,5.81-1.16,5.81-1.16v30.21c0,2.32,2.32,2.32,2.32,2.32h-8.13s2.32,0,2.32-2.32Z"/>
    <path d="M241.48,256.51h-3.49s-2.32,0-2.32-2.32v-1.93c-.7,2.36-2.46,4.64-6.2,4.64-6.97,0-9.3-3.49-9.3-7.17,0-2.32.92-4.26,3.03-5.62,2.4-1.55,5.1-1.49,6.79-1.65,1.61-.15,2.81-.55,3.66-1.13,1.05-.72,1.59-1.77,1.63-3.23-.52-2.4-1.73-4.07-4.45-4.07-2.91,0-6.58,3.49-7.75,8.52l-.97-5.19c2.12-2.29,5.15-3.72,8.52-3.72,5.81,0,8.52,3.1,8.52,9.68v10.85c0,2.32,2.32,2.32,2.32,2.32ZM235.67,243.34c0-1.38-.03-2.73-.18-3.95-.26.96-.79,1.71-1.62,2.27-.89.61-2.08,1.08-3.75,1.27-1.8.21-3.04.46-4.24,1.61-1.36,1.3-1.82,3.43-1.82,5.19,0,2.9,1.36,6.78,5.62,6.78,3.87,0,6-3.1,6-6.97v-6.2Z"/>
    <path d="M268.95,254.19v-13.17c0-5.04-2.13-6.97-5.42-6.97s-5.42,2.9-5.42,6.97v13.17c0,2.32,2.32,2.32,2.32,2.32h-8.13s2.32,0,2.32-2.32v-16.66c0-2.32-2.32-2.32-2.32-2.32,5.81,0,5.81-1.16,5.81-1.16v4.08c.71-2.44,2.45-4.47,5.81-4.47,6.97,0,8.52,4.26,8.52,7.36v13.17c0,2.32,2.32,2.32,2.32,2.32h-8.13s2.32,0,2.32-2.32Z"/>
    <path d="M307.29,262.13c0,4.84-6.39,4.84-11.62,4.84-5.81,0-8.71-1.55-10.84-3.72l.97-5.19c1.16,5.04,4.26,8.52,9.88,8.52,3.1,0,9.49-.39,9.49-3.1,0-1.36-.77-2.71-5.81-2.71-4.45,0-5.23-2.32-5.23-3.68s.83-2.07,1.69-2.52c-5.66-.13-10.21-4.76-10.21-10.45s4.68-10.46,10.46-10.46c2,0,3.87.56,5.46,1.54.11-.91.47-1.68,1.07-2.26.69-.67,1.65-1.02,2.77-1.02s1.94.87,1.94,1.94-.87,1.94-1.94,1.94-1.94-.87-1.94-1.94c0-.5.19-.96.51-1.3-1.18.45-1.93,1.47-2.04,2.88,2.79,1.88,4.63,5.07,4.63,8.69,0,5.19-3.79,9.5-8.75,10.32h0s0,0,0,0c-.08.01-.17.03-.25.04-.59.11-2.04.47-2.04,1.46,0,.92.77,1.35,4.26,1.35,5.42,0,7.55,1.94,7.55,4.84ZM296.93,254.15c3.62-.32,6.17-5.06,5.68-10.61-.48-5.54-3.81-9.78-7.44-9.46-3.62.32-6.17,5.07-5.68,10.61.48,5.54,3.81,9.78,7.44,9.46Z"/>
  </g>
</svg>